# AST/ASF file generated using VICON BodyLanguage
# -----------------------------------------------
:version 1.10
:name VICON
:units
  mass 1.0
  length 0.45
  angle deg
:documentation
   .ast/.asf automatically generated from VICON data using
   VICON BodyBuilder and BodyLanguage model FoxedUp or BRILLIANT.MOD
:root
   order TX TY TZ RX RY RZ
   axis XYZ
   position 0 0 0  
   orientation 0 0 0 
:bonedata
  begin
     id 1 
     name lhipjoint
     direction 0.543289 -0.788407 0.288535 
     length 2.57127 
     axis 0 0 0  XYZ
  end
  begin
     id 2 
     name lfemur
     direction 0.34202 -0.939693 0  
     length 8.47298  
     axis 0 0 20  XYZ
    dof rx ry rz
    limits (-160.0 20.0)
           (-70.0 70.0)
           (-60.0 70.0)
  end
  begin
     id 3 
     name ltibia
     direction 0.34202 -0.939693 0   
     length 8.13367   
     axis 0 0 20   XYZ
    dof rx
    limits (-10.0 170.0)
  end
  begin
     id 4 
     name lfoot
     direction 0.114037 -0.313314 0.942778   
     length 2.67113   
     axis -90 7.62852e-016 20   XYZ
    dof rx rz
    limits (-45.0 90.0)
           (-70.0 20.0)
  end
  begin
     id 5 
     name ltoes
     direction 1.536e-011 -4.21847e-011 1   
     length 1.32217   
     axis -90 7.62852e-016 20   XYZ
    dof rx
    limits (-90.0 20.0)
  end
  begin
     id 6 
     name rhipjoint
     direction -0.571293 -0.770752 0.282074   
     length 2.63017  
     axis 0 0 0  XYZ 
  end
  begin
     id 7 
     name rfemur
     direction -0.34202 -0.939693 0   
     length 8.60885   
     axis 0 0 -20   XYZ
    dof rx ry rz
    limits (-160.0 20.0)
           (-70.0 70.0)
           (-70.0 60.0)
  end
  begin
     id 8 
     name rtibia
     direction -0.34202 -0.939693 0   
     length 8.07673   
     axis 0 0 -20   XYZ
    dof rx
    limits (-10.0 170.0)
 end
 begin
     id 9 
     name rfoot
     direction -0.121336 -0.333368 0.934956   
     length 2.81602  
     axis -90 -7.62852e-016 -20   XYZ
    dof rx rz
    limits (-45.0 90.0)
           (-20.0 70.0)
  end
  begin
     id 10 
     name rtoes
     direction -1.53491e-011 -4.21808e-011 1   
     length 1.38905   
     axis -90 -7.62852e-016 -20   XYZ
    dof rx
    limits (-90.0 20.0)
  end
  begin
     id 11 
     name lowerback
     direction 0.0136776 0.999869 -0.00861835   
     length 2.14087   
     axis 0 0 0   XYZ
    dof rx ry rz
    limits (-20.0 45.0)
           (-30.0 30.0)
           (-30.0 30.0)
  end
  begin
     id 12 
     name upperback
     direction -0.00789158 0.999804 0.0181308   
     length 2.14151   
     axis 0 0 0   XYZ
    dof rx ry rz
    limits (-20.0 45.0)
           (-30.0 30.0)
           (-30.0 30.0)
  end
  begin
     id 13 
     name thorax
     direction -0.0135231 0.999666 0.0220247   
     length 2.13644   
     axis 0 0 0   XYZ
    dof rx ry rz
    limits (-20.0 45.0)
           (-30.0 30.0)
           (-30.0 30.0)
  end
  begin
     id 14 
     name lowerneck
     direction -0.0392259 0.997317 0.0618018   
     length 1.65045   
     axis 0 0 0   XYZ
    dof rx ry rz
    limits (-20.0 45.0)
           (-30.0 30.0)
           (-30.0 30.0)
  end
  begin
     id 15 
     name upperneck
     direction 0.0765547 0.994276 -0.0745319   
     length 1.66045   
     axis 0 0 0   XYZ
    dof rx ry rz
    limits (-20.0 45.0)
           (-30.0 30.0)
           (-30.0 30.0)
  end
  begin
     id 16
     name head
     direction 0.0241564 0.999031 -0.036785  
     length 1.66594  
     axis 0 0 0   XYZ
    dof rx ry rz
    limits (-20.0 45.0)
           (-30.0 30.0)
           (-30.0 30.0)
  end
  begin
     id 17 
     name lclavicle
     direction 0.967398 0.249018 0.0461573  
     length 3.75176  
     axis 0 0 0   XYZ
    dof ry rz
    limits (-20.0 10.0)
           (0.0 20.0)
  end
  begin
     id 18 
     name lhumerus
     direction 1 -4.48963e-011 -3.05005e-027   
     length 5.93342   
     axis 180 -30 -90   XYZ
    dof rx ry rz
    limits (-60.0 90.0)
           (-90.0 90.0)
           (-90.0 90.0)
  end
  begin
     id 19
     name lradius
     direction 1 -4.48957e-011 1.07006e-026   
     length 3.94763   
     axis 180 -30 -90   XYZ
    dof rx
    limits (-10.0 170.0)
  end
  begin
     id 20
     name lwrist
     direction 1 -4.48978e-011 1.92422e-026   
     length 1.97382   
     axis -1.18182e-014 90 90   XYZ
    dof ry
    limits (-180.0 0.0)
 end
  begin
     id 21 
     name lhand
     direction 1 -4.48931e-011 3.84844e-026   
     length 0.560187   
     axis -2.45563e-014 90 90   XYZ
    dof rx rz
    limits (-90.0 90.0)
           (-45.0 45.0)
  end
  begin
     id 22 
     name lfingers
     direction 1 -4.48952e-011 7.69687e-026   
     length 0.451637   
     axis -4.91126e-014 90 90   XYZ
    dof rx
    limits (0.0 90.0)
  end
  begin
     id 23
     name lthumb
     direction 0.707107 -6.34901e-011 0.707107   
     length 0.648463   
     axis -90 45 2.85299e-015   XYZ
    dof rx rz
    limits (-45.0 45.0)
           (-45.0 45.0)
  end
  begin
     id 24 
     name rclavicle
     direction -0.965946 0.258716 0.00371831   
     length 3.63667  
     axis 0 0 0   XYZ 
    dof ry rz
    limits (-10.0 20.0)
           (-20.0 0.0)
  end
  begin
     id 25 
     name rhumerus
     direction -1 -4.48966e-011 -1.78361e-028  
     length 6.28647   
     axis 180 30 90   XYZ
    dof rx ry rz
    limits (-90.0 60.0)
           (-90.0 90.0)
           (-90.0 90.0)
  end
  begin
     id 26 
     name rradius
     direction -1 -4.48961e-011 1.05248e-026   
     length 3.81645   
     axis 180 30 90   XYZ
    dof rx
    limits (-10.0 170.0)
  end
  begin
     id 27 
     name rwrist
     direction -1 -4.48979e-011 1.92422e-026   
     length 1.90822   
     axis -1.18182e-014 -90 -90   XYZ
    dof ry
    limits (-180.0 0.0)
  end
  begin
     id 28
     name rhand
     direction -1 -4.48937e-011 3.84844e-026   
     length 0.646185   
     axis -2.45563e-014 -90 -90   XYZ
    dof rx rz
    limits (-90.0 90.0)
           (-45.0 45.0)
  end
  begin
     id 29
     name rfingers
     direction -1 -4.48953e-011 7.69687e-026   
     length 0.520971   
     axis -4.91126e-014 -90 -90   XYZ
    dof rx
    limits (0.0 90.0)
  end
  begin
     id 30
     name rthumb
     direction -0.707107 -6.3494e-011 0.707107   
     length 0.748013   
     axis -90 -45 -2.85299e-015   XYZ
    dof rx rz
    limits (-45.0 45.0)
           (-45.0 45.0)
  end
:hierarchy
  begin
    root lhipjoint rhipjoint lowerback
    lhipjoint lfemur
    lfemur ltibia
    ltibia lfoot
    lfoot ltoes
    rhipjoint rfemur
    rfemur rtibia
    rtibia rfoot
    rfoot rtoes
    lowerback upperback
    upperback thorax
    thorax lowerneck lclavicle rclavicle
    lowerneck upperneck
    upperneck head
    lclavicle lhumerus
    lhumerus lradius
    lradius lwrist
    lwrist lhand lthumb
    lhand lfingers
    rclavicle rhumerus
    rhumerus rradius
    rradius rwrist
    rwrist rhand rthumb
    rhand rfingers
  end

#!OML:ASF H:\HAZMAT1\Patient Classification 1\Patient 3\Session 1\dancer.ASF
:FULLY-SPECIFIED
:DEGREES
163
upperback -2.861550 -11.112100 -0.988524
rfoot -23.662300 -5.557530
lradius 14.687000
lthumb 14.648300 -306.266998
rradius 26.909599
lwrist -32.150002
rhand -38.087299 -39.666199
rhumerus -27.267500 -30.632200 13.310100
lowerneck -0.323805 9.854960 8.698670
lhand -11.386300 384.270996
ltibia 71.672897
head 2.079290 6.643230 -1.992490
rwrist -0.669846
lfingers 7.125020
rtoes 19.784599
lowerback -4.330770 -8.271040 4.160700
rfingers 7.125020
lclavicle 0.000000 0.000000
upperneck 3.807350 13.133400 -2.684460
rfemur -12.262600 15.105000 26.626200
thorax -1.547640 -5.628420 -3.520790
rclavicle 0.000000 0.000000
rtibia 45.156799
lfoot 9.874130 6.505130
lhumerus 46.266499 14.554000 48.822899
rthumb -11.123500 650.648987
root 37.592999 17.937300 25.616800 -907.372009 -260.346008 177.837997
ltoes 10.511000
lfemur -32.496601 1.373190 -11.596600
164
upperback -3.511750 -10.481600 -0.222385
rfoot -27.459000 -3.869070
lradius 16.303301
lthumb 10.767600 -306.123993
rradius 25.182699
lwrist -31.611601
rhand -37.437099 -41.908901
rhumerus -36.743099 -25.860399 12.885400
lowerneck 0.842037 10.683800 7.580210
lhand -15.411700 384.171997
ltibia 70.006500
head -0.671612 7.081510 -1.658860
rwrist -2.831630
lfingers 7.125020
rtoes 19.453400
lowerback -4.903380 -7.839860 2.893100
rfingers 7.125020
lclavicle -0.000000 -0.000000
upperneck -3.747590 14.346800 -1.255230
rfemur -8.625610 17.168501 24.142500
thorax -1.469700 -5.279490 -2.130690
rclavicle -0.000000 -0.000000
rtibia 46.163799
lfoot 12.844600 7.401150
lhumerus 60.187500 22.217300 44.651199
rthumb -10.496300 648.372986
root 38.499298 17.855600 25.504900 -896.674011 -256.250000 189.639999
ltoes 9.985120
lfemur -26.751101 -2.209520 -14.697800
165
upperback -4.329220 -9.753830 0.648028
rfoot -28.703300 -3.729890
lradius 16.605101
lthumb 7.769370 -307.497986
rradius 24.414600
lwrist -30.523001
rhand -35.281101 -43.196098
rhumerus -46.274200 -25.731100 11.197600
lowerneck 0.422567 11.038900 5.966970
lhand -18.519100 382.664001
ltibia 69.932999
head -2.681410 7.279230 -1.248390
rwrist -3.155790
lfingers 7.125020
rtoes 17.951700
lowerback -5.213670 -7.329460 2.512080
rfingers 7.125020
lclavicle -0.000000 -0.000000
upperneck -9.531460 15.047400 0.115113
rfemur -5.818890 18.612400 23.125401
thorax -1.883840 -4.897280 -1.024770
rclavicle -0.000000 -0.000000
rtibia 45.286701
lfoot 14.629000 8.302020
lhumerus 66.200401 25.993000 42.169201
rthumb -8.416030 646.992004
root 39.209900 17.881201 25.389601 -895.135010 -253.541000 191.332993
ltoes 10.556900
lfemur -24.490000 -0.984955 -16.249599
166
upperback -4.729020 -9.107830 1.443770
rfoot -29.523100 -4.744890
lradius 17.100100
lthumb 8.686980 -306.536987
rradius 23.500401
lwrist -29.139000
rhand -32.071899 -42.613201
rhumerus -53.787899 -24.539400 8.525330
lowerneck -0.633356 11.481000 5.810210
lhand -17.568300 383.661011
ltibia 69.909599
head -4.104340 7.566520 -1.541010
rwrist -0.050024
lfingers 7.125020
rtoes 16.398001
lowerback -4.967810 -6.867820 2.620400
rfingers 7.125020
lclavicle -0.000000 0.000000
upperneck -14.253100 15.819500 -0.348687
rfemur -5.528430 20.309601 22.417200
thorax -2.295720 -4.565280 -0.205261
rclavicle -0.000000 0.000000
rtibia 44.884701
lfoot 14.779100 8.128490
lhumerus 70.356201 29.735100 39.745499
rthumb -5.318120 647.473999
root 39.621799 17.893299 25.248899 -894.416992 -251.936005 191.052994
ltoes 9.605630
lfemur -24.237700 -0.464069 -17.074800
167
upperback -5.187270 -8.007950 2.034600
rfoot -29.020100 -5.470020
lradius 18.219900
lthumb 8.077220 -306.877014
rradius 23.980101
lwrist -27.354099
rhand -30.928301 -39.498199
rhumerus -58.329300 -22.698500 4.493470
lowerneck -0.608152 11.489900 4.371200
lhand -18.200100 383.296997
ltibia 69.270203
head -5.032100 7.662220 -1.136100
rwrist 0.252764
lfingers 7.125020
rtoes 16.559900
lowerback -5.006210 -6.055740 3.329770
rfingers 7.125020
lclavicle 0.000000 0.000000
upperneck -16.139601 16.080900 0.642336
rfemur -5.726460 19.455000 22.021099
thorax -2.738410 -4.024600 0.064015
rclavicle 0.000000 0.000000
rtibia 43.900002
lfoot 14.087200 8.521020
lhumerus 73.250702 31.492599 38.688999
rthumb -4.213850 650.564026
root 39.815498 17.971800 25.143900 -895.296997 -250.046005 189.307999
ltoes 9.762340
lfemur -23.878099 0.616701 -17.340000
168
upperback -5.402330 -7.405280 2.538380
rfoot -29.480000 -5.693290
lradius 18.682400
lthumb 7.312910 -306.865997
rradius 24.905199
lwrist -28.322399
rhand -30.271400 -38.733299
rhumerus -60.745800 -21.620701 3.897630
lowerneck -1.352120 11.374800 5.317490
lhand -18.992001 383.281006
ltibia 69.400497
head -4.642470 7.523220 -1.386840
rwrist 1.508870
lfingers 7.125020
rtoes 16.349899
lowerback -5.184860 -5.605790 4.078890
rfingers 7.125020
lclavicle 0.000000 -0.000000
upperneck -15.854800 15.794500 0.021711
rfemur -5.169640 20.671499 22.331301
thorax -2.880750 -3.733760 0.178817
rclavicle 0.000000 -0.000000
rtibia 42.487801
lfoot 14.364500 8.741780
lhumerus 76.440697 32.708500 40.618198
rthumb -3.579570 651.317017
root 39.872700 17.983900 25.065001 -896.828979 -248.951004 187.496002
ltoes 9.799830
lfemur -23.926201 -0.575716 -17.331600
169
upperback -5.740960 -7.578240 3.060550
rfoot -29.940300 -6.222610
lradius 18.902800
lthumb 7.178860 -307.367004
rradius 25.113701
lwrist -27.909201
rhand -29.588800 -38.319599
rhumerus -61.311401 -21.482100 2.881540
lowerneck -0.827150 11.571000 4.310100
lhand -19.130800 382.774994
ltibia 69.395203
head -4.790380 7.703490 -1.336990
rwrist 1.516250
lfingers 7.125020
rtoes 15.565300
lowerback -5.412280 -5.757070 4.292720
rfingers 7.125020
lclavicle -0.000000 0.000000
upperneck -17.404900 16.114700 -0.263208
rfemur -4.370720 20.516001 22.269600
thorax -3.073360 -3.812490 0.592131
rclavicle -0.000000 0.000000
rtibia 42.454102
lfoot 14.165700 8.402380
lhumerus 76.641899 33.641399 40.221100
rthumb -2.920330 651.721008
root 39.949799 17.964500 25.052099 -896.478027 -249.406006 188.235001
ltoes 8.446500
lfemur -23.375601 -0.633471 -17.624800
170
upperback -5.843220 -7.352320 3.377370
rfoot -30.159500 -6.457070
lradius 18.849800
lthumb 7.034690 -307.592987
rradius 25.303101
lwrist -28.589300
rhand -28.101801 -37.985802
rhumerus -62.144001 -21.706200 1.675820
lowerneck -1.116060 11.581000 4.382880
lhand -19.280199 382.544006
ltibia 69.450798
head -5.015100 7.716260 -1.578330
rwrist 2.008300
lfingers 7.125020
rtoes 15.032400
lowerback -5.511440 -5.592660 4.690780
rfingers 7.125020
lclavicle 0.000000 0.000000
upperneck -18.492001 16.103100 -0.971102
rfemur -4.187280 20.266001 22.239901
thorax -3.132200 -3.702540 0.702034
rclavicle 0.000000 0.000000
rtibia 42.200802
lfoot 13.994200 8.464440
lhumerus 77.742401 34.171101 40.915298
rthumb -1.484280 652.039978
root 39.999199 17.965700 25.063999 -896.159973 -249.919998 188.389999
ltoes 8.071190
lfemur -23.499800 -0.759869 -17.675900
171
upperback -5.806060 -7.002320 3.368830
rfoot -30.156900 -6.216060
lradius 18.857599
lthumb 6.728490 -307.867004
rradius 25.716000
lwrist -29.319500
rhand -26.388599 -37.160099
rhumerus -62.584499 -21.484100 0.070656
lowerneck -1.278140 11.532100 4.309950
lhand -19.597401 382.259003
ltibia 68.989197
head -5.370860 7.713350 -1.588280
rwrist 2.345860
lfingers 7.125020
rtoes 14.662900
lowerback -5.411180 -5.331920 4.561170
rfingers 7.125020
lclavicle -0.000000 0.000000
upperneck -19.663401 16.146900 -0.885456
rfemur -4.301420 20.639500 21.626499
thorax -3.123980 -3.525100 0.775544
rclavicle -0.000000 0.000000
rtibia 41.600300
lfoot 14.171200 9.134930
lhumerus 78.818604 34.624901 41.763599
rthumb 0.170392 652.859985
root 40.047901 18.007099 25.083300 -894.929993 -249.229004 189.231003
ltoes 8.536730
lfemur -23.515600 -1.134120 -18.266899
